<mxfile host="Electron" modified="2023-05-04T02:01:03.306Z" agent="Mozilla/5.0 (Windows NT 10.0; Win64; x64) AppleWebKit/537.36 (KHTML, like Gecko) draw.io/21.1.2 Chrome/106.0.5249.199 Electron/21.4.3 Safari/537.36" etag="zu8lDeR-YewntsIcxO_x" version="21.1.2" type="device">
  <diagram id="3t0y16pj7yjLajtcGfGG" name="Class">
    <mxGraphModel dx="3652" dy="1308" grid="1" gridSize="10" guides="1" tooltips="1" connect="1" arrows="1" fold="1" page="1" pageScale="1" pageWidth="1100" pageHeight="1700" math="0" shadow="0">
      <root>
        <mxCell id="0" />
        <mxCell id="1" parent="0" />
        <mxCell id="qnFj9ZisFZUVQoPnTV5s-1" value="USER" style="swimlane;fontStyle=0;childLayout=stackLayout;horizontal=1;startSize=30;horizontalStack=0;resizeParent=1;resizeParentMax=0;resizeLast=0;collapsible=1;marginBottom=0;whiteSpace=wrap;html=1;fillColor=#d5e8d4;strokeColor=#82b366;" parent="1" vertex="1">
          <mxGeometry x="310" y="40" width="160" height="330" as="geometry" />
        </mxCell>
        <mxCell id="qnFj9ZisFZUVQoPnTV5s-2" value="id: int" style="text;strokeColor=none;fillColor=none;align=left;verticalAlign=middle;spacingLeft=4;spacingRight=4;overflow=hidden;points=[[0,0.5],[1,0.5]];portConstraint=eastwest;rotatable=0;whiteSpace=wrap;html=1;" parent="qnFj9ZisFZUVQoPnTV5s-1" vertex="1">
          <mxGeometry y="30" width="160" height="30" as="geometry" />
        </mxCell>
        <mxCell id="qnFj9ZisFZUVQoPnTV5s-3" value="first_name: string" style="text;strokeColor=none;fillColor=none;align=left;verticalAlign=middle;spacingLeft=4;spacingRight=4;overflow=hidden;points=[[0,0.5],[1,0.5]];portConstraint=eastwest;rotatable=0;whiteSpace=wrap;html=1;" parent="qnFj9ZisFZUVQoPnTV5s-1" vertex="1">
          <mxGeometry y="60" width="160" height="30" as="geometry" />
        </mxCell>
        <mxCell id="qnFj9ZisFZUVQoPnTV5s-4" value="" style="endArrow=none;html=1;rounded=0;exitX=1;exitY=0.046;exitDx=0;exitDy=0;exitPerimeter=0;entryX=0.017;entryY=0.046;entryDx=0;entryDy=0;entryPerimeter=0;" parent="qnFj9ZisFZUVQoPnTV5s-1" source="qnFj9ZisFZUVQoPnTV5s-6" target="qnFj9ZisFZUVQoPnTV5s-6" edge="1">
          <mxGeometry width="50" height="50" relative="1" as="geometry">
            <mxPoint x="70" y="90" as="sourcePoint" />
            <mxPoint x="-40" y="160" as="targetPoint" />
          </mxGeometry>
        </mxCell>
        <mxCell id="qnFj9ZisFZUVQoPnTV5s-7" value="last_name: string" style="text;strokeColor=none;fillColor=none;align=left;verticalAlign=middle;spacingLeft=4;spacingRight=4;overflow=hidden;points=[[0,0.5],[1,0.5]];portConstraint=eastwest;rotatable=0;whiteSpace=wrap;html=1;" parent="qnFj9ZisFZUVQoPnTV5s-1" vertex="1">
          <mxGeometry y="90" width="160" height="30" as="geometry" />
        </mxCell>
        <mxCell id="qnFj9ZisFZUVQoPnTV5s-8" value="role: string" style="text;strokeColor=none;fillColor=none;align=left;verticalAlign=middle;spacingLeft=4;spacingRight=4;overflow=hidden;points=[[0,0.5],[1,0.5]];portConstraint=eastwest;rotatable=0;whiteSpace=wrap;html=1;" parent="qnFj9ZisFZUVQoPnTV5s-1" vertex="1">
          <mxGeometry y="120" width="160" height="30" as="geometry" />
        </mxCell>
        <mxCell id="qnFj9ZisFZUVQoPnTV5s-5" value="phone_number: string" style="text;strokeColor=none;fillColor=none;align=left;verticalAlign=middle;spacingLeft=4;spacingRight=4;overflow=hidden;points=[[0,0.5],[1,0.5]];portConstraint=eastwest;rotatable=0;whiteSpace=wrap;html=1;" parent="qnFj9ZisFZUVQoPnTV5s-1" vertex="1">
          <mxGeometry y="150" width="160" height="30" as="geometry" />
        </mxCell>
        <mxCell id="qnFj9ZisFZUVQoPnTV5s-9" value="email: string" style="text;strokeColor=none;fillColor=none;align=left;verticalAlign=middle;spacingLeft=4;spacingRight=4;overflow=hidden;points=[[0,0.5],[1,0.5]];portConstraint=eastwest;rotatable=0;whiteSpace=wrap;html=1;" parent="qnFj9ZisFZUVQoPnTV5s-1" vertex="1">
          <mxGeometry y="180" width="160" height="30" as="geometry" />
        </mxCell>
        <mxCell id="qnFj9ZisFZUVQoPnTV5s-11" value="creation_date: Date" style="text;strokeColor=none;fillColor=none;align=left;verticalAlign=middle;spacingLeft=4;spacingRight=4;overflow=hidden;points=[[0,0.5],[1,0.5]];portConstraint=eastwest;rotatable=0;whiteSpace=wrap;html=1;" parent="qnFj9ZisFZUVQoPnTV5s-1" vertex="1">
          <mxGeometry y="210" width="160" height="30" as="geometry" />
        </mxCell>
        <mxCell id="qnFj9ZisFZUVQoPnTV5s-10" value="password: string" style="text;strokeColor=none;fillColor=none;align=left;verticalAlign=middle;spacingLeft=4;spacingRight=4;overflow=hidden;points=[[0,0.5],[1,0.5]];portConstraint=eastwest;rotatable=0;whiteSpace=wrap;html=1;" parent="qnFj9ZisFZUVQoPnTV5s-1" vertex="1">
          <mxGeometry y="240" width="160" height="30" as="geometry" />
        </mxCell>
        <mxCell id="qnFj9ZisFZUVQoPnTV5s-6" value="+create_account()" style="text;strokeColor=none;fillColor=none;align=left;verticalAlign=middle;spacingLeft=4;spacingRight=4;overflow=hidden;points=[[0,0.5],[1,0.5]];portConstraint=eastwest;rotatable=0;whiteSpace=wrap;html=1;" parent="qnFj9ZisFZUVQoPnTV5s-1" vertex="1">
          <mxGeometry y="270" width="160" height="30" as="geometry" />
        </mxCell>
        <mxCell id="qnFj9ZisFZUVQoPnTV5s-12" value="+view_annoucement()" style="text;strokeColor=none;fillColor=none;align=left;verticalAlign=middle;spacingLeft=4;spacingRight=4;overflow=hidden;points=[[0,0.5],[1,0.5]];portConstraint=eastwest;rotatable=0;whiteSpace=wrap;html=1;" parent="qnFj9ZisFZUVQoPnTV5s-1" vertex="1">
          <mxGeometry y="300" width="160" height="30" as="geometry" />
        </mxCell>
        <mxCell id="6oKM-fmaNjVpeEvg0Xlq-1" value="REPORT" style="swimlane;fontStyle=0;childLayout=stackLayout;horizontal=1;startSize=30;horizontalStack=0;resizeParent=1;resizeParentMax=0;resizeLast=0;collapsible=1;marginBottom=0;whiteSpace=wrap;html=1;fillColor=#d5e8d4;strokeColor=#82b366;" parent="1" vertex="1">
          <mxGeometry x="530" y="110" width="140" height="120" as="geometry" />
        </mxCell>
        <mxCell id="6oKM-fmaNjVpeEvg0Xlq-2" value="id: int" style="text;strokeColor=none;fillColor=none;align=left;verticalAlign=middle;spacingLeft=4;spacingRight=4;overflow=hidden;points=[[0,0.5],[1,0.5]];portConstraint=eastwest;rotatable=0;whiteSpace=wrap;html=1;" parent="6oKM-fmaNjVpeEvg0Xlq-1" vertex="1">
          <mxGeometry y="30" width="140" height="30" as="geometry" />
        </mxCell>
        <mxCell id="6oKM-fmaNjVpeEvg0Xlq-3" value="" style="endArrow=none;html=1;rounded=0;exitX=-0.008;exitY=-0.009;exitDx=0;exitDy=0;exitPerimeter=0;entryX=1.008;entryY=-0.009;entryDx=0;entryDy=0;entryPerimeter=0;" parent="6oKM-fmaNjVpeEvg0Xlq-1" source="6oKM-fmaNjVpeEvg0Xlq-2" target="6oKM-fmaNjVpeEvg0Xlq-2" edge="1">
          <mxGeometry width="50" height="50" relative="1" as="geometry">
            <mxPoint x="70" y="90" as="sourcePoint" />
            <mxPoint x="120" y="40" as="targetPoint" />
          </mxGeometry>
        </mxCell>
        <mxCell id="6oKM-fmaNjVpeEvg0Xlq-4" value="date: Date" style="text;strokeColor=none;fillColor=none;align=left;verticalAlign=middle;spacingLeft=4;spacingRight=4;overflow=hidden;points=[[0,0.5],[1,0.5]];portConstraint=eastwest;rotatable=0;whiteSpace=wrap;html=1;" parent="6oKM-fmaNjVpeEvg0Xlq-1" vertex="1">
          <mxGeometry y="60" width="140" height="30" as="geometry" />
        </mxCell>
        <mxCell id="6oKM-fmaNjVpeEvg0Xlq-5" value="content: string" style="text;strokeColor=none;fillColor=none;align=left;verticalAlign=middle;spacingLeft=4;spacingRight=4;overflow=hidden;points=[[0,0.5],[1,0.5]];portConstraint=eastwest;rotatable=0;whiteSpace=wrap;html=1;" parent="6oKM-fmaNjVpeEvg0Xlq-1" vertex="1">
          <mxGeometry y="90" width="140" height="30" as="geometry" />
        </mxCell>
        <mxCell id="6oKM-fmaNjVpeEvg0Xlq-6" value="ANNOUNCEMENT" style="swimlane;fontStyle=0;childLayout=stackLayout;horizontal=1;startSize=30;horizontalStack=0;resizeParent=1;resizeParentMax=0;resizeLast=0;collapsible=1;marginBottom=0;whiteSpace=wrap;html=1;fillColor=#d5e8d4;strokeColor=#82b366;" parent="1" vertex="1">
          <mxGeometry x="720" y="30" width="140" height="120" as="geometry" />
        </mxCell>
        <mxCell id="6oKM-fmaNjVpeEvg0Xlq-7" value="id: int" style="text;strokeColor=none;fillColor=none;align=left;verticalAlign=middle;spacingLeft=4;spacingRight=4;overflow=hidden;points=[[0,0.5],[1,0.5]];portConstraint=eastwest;rotatable=0;whiteSpace=wrap;html=1;" parent="6oKM-fmaNjVpeEvg0Xlq-6" vertex="1">
          <mxGeometry y="30" width="140" height="30" as="geometry" />
        </mxCell>
        <mxCell id="6oKM-fmaNjVpeEvg0Xlq-8" value="" style="endArrow=none;html=1;rounded=0;exitX=-0.008;exitY=-0.009;exitDx=0;exitDy=0;exitPerimeter=0;entryX=1.008;entryY=-0.009;entryDx=0;entryDy=0;entryPerimeter=0;" parent="6oKM-fmaNjVpeEvg0Xlq-6" source="6oKM-fmaNjVpeEvg0Xlq-7" target="6oKM-fmaNjVpeEvg0Xlq-7" edge="1">
          <mxGeometry width="50" height="50" relative="1" as="geometry">
            <mxPoint x="70" y="90" as="sourcePoint" />
            <mxPoint x="120" y="40" as="targetPoint" />
          </mxGeometry>
        </mxCell>
        <mxCell id="6oKM-fmaNjVpeEvg0Xlq-9" value="sender_id: int" style="text;strokeColor=none;fillColor=none;align=left;verticalAlign=middle;spacingLeft=4;spacingRight=4;overflow=hidden;points=[[0,0.5],[1,0.5]];portConstraint=eastwest;rotatable=0;whiteSpace=wrap;html=1;" parent="6oKM-fmaNjVpeEvg0Xlq-6" vertex="1">
          <mxGeometry y="60" width="140" height="30" as="geometry" />
        </mxCell>
        <mxCell id="6oKM-fmaNjVpeEvg0Xlq-10" value="content: string" style="text;strokeColor=none;fillColor=none;align=left;verticalAlign=middle;spacingLeft=4;spacingRight=4;overflow=hidden;points=[[0,0.5],[1,0.5]];portConstraint=eastwest;rotatable=0;whiteSpace=wrap;html=1;" parent="6oKM-fmaNjVpeEvg0Xlq-6" vertex="1">
          <mxGeometry y="90" width="140" height="30" as="geometry" />
        </mxCell>
        <mxCell id="6oKM-fmaNjVpeEvg0Xlq-11" value="" style="endArrow=none;html=1;rounded=0;entryX=0;entryY=0.5;entryDx=0;entryDy=0;" parent="1" target="6oKM-fmaNjVpeEvg0Xlq-2" edge="1">
          <mxGeometry width="50" height="50" relative="1" as="geometry">
            <mxPoint x="470" y="155" as="sourcePoint" />
            <mxPoint x="600" y="280" as="targetPoint" />
          </mxGeometry>
        </mxCell>
        <mxCell id="6oKM-fmaNjVpeEvg0Xlq-12" value="" style="endArrow=none;html=1;rounded=0;exitX=1.002;exitY=0.038;exitDx=0;exitDy=0;exitPerimeter=0;entryX=0.006;entryY=0.182;entryDx=0;entryDy=0;entryPerimeter=0;" parent="1" source="qnFj9ZisFZUVQoPnTV5s-1" target="6oKM-fmaNjVpeEvg0Xlq-6" edge="1">
          <mxGeometry width="50" height="50" relative="1" as="geometry">
            <mxPoint x="550" y="330" as="sourcePoint" />
            <mxPoint x="600" y="280" as="targetPoint" />
          </mxGeometry>
        </mxCell>
        <mxCell id="6oKM-fmaNjVpeEvg0Xlq-13" value="ROOM" style="swimlane;fontStyle=0;childLayout=stackLayout;horizontal=1;startSize=30;horizontalStack=0;resizeParent=1;resizeParentMax=0;resizeLast=0;collapsible=1;marginBottom=0;whiteSpace=wrap;html=1;fillColor=#d5e8d4;strokeColor=#82b366;" parent="1" vertex="1">
          <mxGeometry x="720" y="200" width="140" height="180" as="geometry" />
        </mxCell>
        <mxCell id="6oKM-fmaNjVpeEvg0Xlq-14" value="number: int" style="text;strokeColor=none;fillColor=none;align=left;verticalAlign=middle;spacingLeft=4;spacingRight=4;overflow=hidden;points=[[0,0.5],[1,0.5]];portConstraint=eastwest;rotatable=0;whiteSpace=wrap;html=1;" parent="6oKM-fmaNjVpeEvg0Xlq-13" vertex="1">
          <mxGeometry y="30" width="140" height="30" as="geometry" />
        </mxCell>
        <mxCell id="6oKM-fmaNjVpeEvg0Xlq-15" value="" style="endArrow=none;html=1;rounded=0;exitX=-0.008;exitY=-0.009;exitDx=0;exitDy=0;exitPerimeter=0;entryX=1.008;entryY=-0.009;entryDx=0;entryDy=0;entryPerimeter=0;" parent="6oKM-fmaNjVpeEvg0Xlq-13" source="6oKM-fmaNjVpeEvg0Xlq-14" target="6oKM-fmaNjVpeEvg0Xlq-14" edge="1">
          <mxGeometry width="50" height="50" relative="1" as="geometry">
            <mxPoint x="70" y="90" as="sourcePoint" />
            <mxPoint x="120" y="40" as="targetPoint" />
          </mxGeometry>
        </mxCell>
        <mxCell id="6oKM-fmaNjVpeEvg0Xlq-16" value="capacity: int" style="text;strokeColor=none;fillColor=none;align=left;verticalAlign=middle;spacingLeft=4;spacingRight=4;overflow=hidden;points=[[0,0.5],[1,0.5]];portConstraint=eastwest;rotatable=0;whiteSpace=wrap;html=1;" parent="6oKM-fmaNjVpeEvg0Xlq-13" vertex="1">
          <mxGeometry y="60" width="140" height="30" as="geometry" />
        </mxCell>
        <mxCell id="6oKM-fmaNjVpeEvg0Xlq-18" value="room_type: string" style="text;strokeColor=none;fillColor=none;align=left;verticalAlign=middle;spacingLeft=4;spacingRight=4;overflow=hidden;points=[[0,0.5],[1,0.5]];portConstraint=eastwest;rotatable=0;whiteSpace=wrap;html=1;" parent="6oKM-fmaNjVpeEvg0Xlq-13" vertex="1">
          <mxGeometry y="90" width="140" height="30" as="geometry" />
        </mxCell>
        <mxCell id="6oKM-fmaNjVpeEvg0Xlq-19" value="price: float" style="text;strokeColor=none;fillColor=none;align=left;verticalAlign=middle;spacingLeft=4;spacingRight=4;overflow=hidden;points=[[0,0.5],[1,0.5]];portConstraint=eastwest;rotatable=0;whiteSpace=wrap;html=1;" parent="6oKM-fmaNjVpeEvg0Xlq-13" vertex="1">
          <mxGeometry y="120" width="140" height="30" as="geometry" />
        </mxCell>
        <mxCell id="6oKM-fmaNjVpeEvg0Xlq-17" value="number_of_beds: int" style="text;strokeColor=none;fillColor=none;align=left;verticalAlign=middle;spacingLeft=4;spacingRight=4;overflow=hidden;points=[[0,0.5],[1,0.5]];portConstraint=eastwest;rotatable=0;whiteSpace=wrap;html=1;" parent="6oKM-fmaNjVpeEvg0Xlq-13" vertex="1">
          <mxGeometry y="150" width="140" height="30" as="geometry" />
        </mxCell>
        <mxCell id="6oKM-fmaNjVpeEvg0Xlq-20" value="" style="endArrow=none;html=1;rounded=0;exitX=1.002;exitY=0.835;exitDx=0;exitDy=0;exitPerimeter=0;entryX=0;entryY=0.5;entryDx=0;entryDy=0;" parent="1" source="qnFj9ZisFZUVQoPnTV5s-11" target="6oKM-fmaNjVpeEvg0Xlq-16" edge="1">
          <mxGeometry width="50" height="50" relative="1" as="geometry">
            <mxPoint x="550" y="320" as="sourcePoint" />
            <mxPoint x="600" y="270" as="targetPoint" />
          </mxGeometry>
        </mxCell>
        <mxCell id="6oKM-fmaNjVpeEvg0Xlq-21" value="EVENT" style="swimlane;fontStyle=0;childLayout=stackLayout;horizontal=1;startSize=30;horizontalStack=0;resizeParent=1;resizeParentMax=0;resizeLast=0;collapsible=1;marginBottom=0;whiteSpace=wrap;html=1;fillColor=#d5e8d4;strokeColor=#82b366;" parent="1" vertex="1">
          <mxGeometry x="890" y="340" width="140" height="210" as="geometry" />
        </mxCell>
        <mxCell id="6oKM-fmaNjVpeEvg0Xlq-22" value="id: int" style="text;strokeColor=none;fillColor=none;align=left;verticalAlign=middle;spacingLeft=4;spacingRight=4;overflow=hidden;points=[[0,0.5],[1,0.5]];portConstraint=eastwest;rotatable=0;whiteSpace=wrap;html=1;" parent="6oKM-fmaNjVpeEvg0Xlq-21" vertex="1">
          <mxGeometry y="30" width="140" height="30" as="geometry" />
        </mxCell>
        <mxCell id="6oKM-fmaNjVpeEvg0Xlq-23" value="" style="endArrow=none;html=1;rounded=0;exitX=-0.008;exitY=-0.009;exitDx=0;exitDy=0;exitPerimeter=0;entryX=1.008;entryY=-0.009;entryDx=0;entryDy=0;entryPerimeter=0;" parent="6oKM-fmaNjVpeEvg0Xlq-21" source="6oKM-fmaNjVpeEvg0Xlq-22" target="6oKM-fmaNjVpeEvg0Xlq-22" edge="1">
          <mxGeometry width="50" height="50" relative="1" as="geometry">
            <mxPoint x="70" y="90" as="sourcePoint" />
            <mxPoint x="120" y="40" as="targetPoint" />
          </mxGeometry>
        </mxCell>
        <mxCell id="6oKM-fmaNjVpeEvg0Xlq-24" value="event_type: string" style="text;strokeColor=none;fillColor=none;align=left;verticalAlign=middle;spacingLeft=4;spacingRight=4;overflow=hidden;points=[[0,0.5],[1,0.5]];portConstraint=eastwest;rotatable=0;whiteSpace=wrap;html=1;" parent="6oKM-fmaNjVpeEvg0Xlq-21" vertex="1">
          <mxGeometry y="60" width="140" height="30" as="geometry" />
        </mxCell>
        <mxCell id="6oKM-fmaNjVpeEvg0Xlq-25" value="location: string" style="text;strokeColor=none;fillColor=none;align=left;verticalAlign=middle;spacingLeft=4;spacingRight=4;overflow=hidden;points=[[0,0.5],[1,0.5]];portConstraint=eastwest;rotatable=0;whiteSpace=wrap;html=1;" parent="6oKM-fmaNjVpeEvg0Xlq-21" vertex="1">
          <mxGeometry y="90" width="140" height="30" as="geometry" />
        </mxCell>
        <mxCell id="6oKM-fmaNjVpeEvg0Xlq-26" value="start_date: Dtae" style="text;strokeColor=none;fillColor=none;align=left;verticalAlign=middle;spacingLeft=4;spacingRight=4;overflow=hidden;points=[[0,0.5],[1,0.5]];portConstraint=eastwest;rotatable=0;whiteSpace=wrap;html=1;" parent="6oKM-fmaNjVpeEvg0Xlq-21" vertex="1">
          <mxGeometry y="120" width="140" height="30" as="geometry" />
        </mxCell>
        <mxCell id="6oKM-fmaNjVpeEvg0Xlq-27" value="end_date: Date" style="text;strokeColor=none;fillColor=none;align=left;verticalAlign=middle;spacingLeft=4;spacingRight=4;overflow=hidden;points=[[0,0.5],[1,0.5]];portConstraint=eastwest;rotatable=0;whiteSpace=wrap;html=1;" parent="6oKM-fmaNjVpeEvg0Xlq-21" vertex="1">
          <mxGeometry y="150" width="140" height="30" as="geometry" />
        </mxCell>
        <mxCell id="6oKM-fmaNjVpeEvg0Xlq-28" value="explaination: string" style="text;strokeColor=none;fillColor=none;align=left;verticalAlign=middle;spacingLeft=4;spacingRight=4;overflow=hidden;points=[[0,0.5],[1,0.5]];portConstraint=eastwest;rotatable=0;whiteSpace=wrap;html=1;" parent="6oKM-fmaNjVpeEvg0Xlq-21" vertex="1">
          <mxGeometry y="180" width="140" height="30" as="geometry" />
        </mxCell>
        <mxCell id="6oKM-fmaNjVpeEvg0Xlq-29" value="" style="endArrow=none;html=1;rounded=0;exitX=0.568;exitY=1.023;exitDx=0;exitDy=0;exitPerimeter=0;entryX=0;entryY=0.5;entryDx=0;entryDy=0;" parent="1" source="qnFj9ZisFZUVQoPnTV5s-12" target="6oKM-fmaNjVpeEvg0Xlq-24" edge="1">
          <mxGeometry width="50" height="50" relative="1" as="geometry">
            <mxPoint x="630" y="410" as="sourcePoint" />
            <mxPoint x="680" y="360" as="targetPoint" />
            <Array as="points">
              <mxPoint x="401" y="415" />
            </Array>
          </mxGeometry>
        </mxCell>
        <mxCell id="6oKM-fmaNjVpeEvg0Xlq-30" value="SERVICE_MENU" style="swimlane;fontStyle=0;childLayout=stackLayout;horizontal=1;startSize=30;horizontalStack=0;resizeParent=1;resizeParentMax=0;resizeLast=0;collapsible=1;marginBottom=0;whiteSpace=wrap;html=1;fillColor=#d5e8d4;strokeColor=#82b366;" parent="1" vertex="1">
          <mxGeometry x="1060" y="500" width="140" height="150" as="geometry" />
        </mxCell>
        <mxCell id="6oKM-fmaNjVpeEvg0Xlq-31" value="menu_id: int" style="text;strokeColor=none;fillColor=none;align=left;verticalAlign=middle;spacingLeft=4;spacingRight=4;overflow=hidden;points=[[0,0.5],[1,0.5]];portConstraint=eastwest;rotatable=0;whiteSpace=wrap;html=1;" parent="6oKM-fmaNjVpeEvg0Xlq-30" vertex="1">
          <mxGeometry y="30" width="140" height="30" as="geometry" />
        </mxCell>
        <mxCell id="6oKM-fmaNjVpeEvg0Xlq-32" value="" style="endArrow=none;html=1;rounded=0;exitX=-0.008;exitY=-0.009;exitDx=0;exitDy=0;exitPerimeter=0;entryX=1.008;entryY=-0.009;entryDx=0;entryDy=0;entryPerimeter=0;" parent="6oKM-fmaNjVpeEvg0Xlq-30" source="6oKM-fmaNjVpeEvg0Xlq-31" target="6oKM-fmaNjVpeEvg0Xlq-31" edge="1">
          <mxGeometry width="50" height="50" relative="1" as="geometry">
            <mxPoint x="70" y="90" as="sourcePoint" />
            <mxPoint x="120" y="40" as="targetPoint" />
          </mxGeometry>
        </mxCell>
        <mxCell id="6oKM-fmaNjVpeEvg0Xlq-35" value="start_date: Dtae" style="text;strokeColor=none;fillColor=none;align=left;verticalAlign=middle;spacingLeft=4;spacingRight=4;overflow=hidden;points=[[0,0.5],[1,0.5]];portConstraint=eastwest;rotatable=0;whiteSpace=wrap;html=1;" parent="6oKM-fmaNjVpeEvg0Xlq-30" vertex="1">
          <mxGeometry y="60" width="140" height="30" as="geometry" />
        </mxCell>
        <mxCell id="6oKM-fmaNjVpeEvg0Xlq-36" value="end_date: Date" style="text;strokeColor=none;fillColor=none;align=left;verticalAlign=middle;spacingLeft=4;spacingRight=4;overflow=hidden;points=[[0,0.5],[1,0.5]];portConstraint=eastwest;rotatable=0;whiteSpace=wrap;html=1;" parent="6oKM-fmaNjVpeEvg0Xlq-30" vertex="1">
          <mxGeometry y="90" width="140" height="30" as="geometry" />
        </mxCell>
        <mxCell id="6oKM-fmaNjVpeEvg0Xlq-37" value="menu_item: string" style="text;strokeColor=none;fillColor=none;align=left;verticalAlign=middle;spacingLeft=4;spacingRight=4;overflow=hidden;points=[[0,0.5],[1,0.5]];portConstraint=eastwest;rotatable=0;whiteSpace=wrap;html=1;" parent="6oKM-fmaNjVpeEvg0Xlq-30" vertex="1">
          <mxGeometry y="120" width="140" height="30" as="geometry" />
        </mxCell>
        <mxCell id="6oKM-fmaNjVpeEvg0Xlq-38" value="BILL" style="swimlane;fontStyle=0;childLayout=stackLayout;horizontal=1;startSize=30;horizontalStack=0;resizeParent=1;resizeParentMax=0;resizeLast=0;collapsible=1;marginBottom=0;whiteSpace=wrap;html=1;fillColor=#d5e8d4;strokeColor=#82b366;" parent="1" vertex="1">
          <mxGeometry x="890" y="610" width="140" height="150" as="geometry" />
        </mxCell>
        <mxCell id="6oKM-fmaNjVpeEvg0Xlq-39" value="id: int" style="text;strokeColor=none;fillColor=none;align=left;verticalAlign=middle;spacingLeft=4;spacingRight=4;overflow=hidden;points=[[0,0.5],[1,0.5]];portConstraint=eastwest;rotatable=0;whiteSpace=wrap;html=1;" parent="6oKM-fmaNjVpeEvg0Xlq-38" vertex="1">
          <mxGeometry y="30" width="140" height="30" as="geometry" />
        </mxCell>
        <mxCell id="6oKM-fmaNjVpeEvg0Xlq-40" value="" style="endArrow=none;html=1;rounded=0;exitX=-0.008;exitY=-0.009;exitDx=0;exitDy=0;exitPerimeter=0;entryX=1.008;entryY=-0.009;entryDx=0;entryDy=0;entryPerimeter=0;" parent="6oKM-fmaNjVpeEvg0Xlq-38" source="6oKM-fmaNjVpeEvg0Xlq-39" target="6oKM-fmaNjVpeEvg0Xlq-39" edge="1">
          <mxGeometry width="50" height="50" relative="1" as="geometry">
            <mxPoint x="70" y="90" as="sourcePoint" />
            <mxPoint x="120" y="40" as="targetPoint" />
          </mxGeometry>
        </mxCell>
        <mxCell id="6oKM-fmaNjVpeEvg0Xlq-41" value="user_id: int" style="text;strokeColor=none;fillColor=none;align=left;verticalAlign=middle;spacingLeft=4;spacingRight=4;overflow=hidden;points=[[0,0.5],[1,0.5]];portConstraint=eastwest;rotatable=0;whiteSpace=wrap;html=1;" parent="6oKM-fmaNjVpeEvg0Xlq-38" vertex="1">
          <mxGeometry y="60" width="140" height="30" as="geometry" />
        </mxCell>
        <mxCell id="6oKM-fmaNjVpeEvg0Xlq-42" value="sumary: string" style="text;strokeColor=none;fillColor=none;align=left;verticalAlign=middle;spacingLeft=4;spacingRight=4;overflow=hidden;points=[[0,0.5],[1,0.5]];portConstraint=eastwest;rotatable=0;whiteSpace=wrap;html=1;" parent="6oKM-fmaNjVpeEvg0Xlq-38" vertex="1">
          <mxGeometry y="90" width="140" height="30" as="geometry" />
        </mxCell>
        <mxCell id="6oKM-fmaNjVpeEvg0Xlq-43" value="date: Date" style="text;strokeColor=none;fillColor=none;align=left;verticalAlign=middle;spacingLeft=4;spacingRight=4;overflow=hidden;points=[[0,0.5],[1,0.5]];portConstraint=eastwest;rotatable=0;whiteSpace=wrap;html=1;" parent="6oKM-fmaNjVpeEvg0Xlq-38" vertex="1">
          <mxGeometry y="120" width="140" height="30" as="geometry" />
        </mxCell>
        <mxCell id="6oKM-fmaNjVpeEvg0Xlq-44" value="CUSTOMER" style="swimlane;fontStyle=0;childLayout=stackLayout;horizontal=1;startSize=30;horizontalStack=0;resizeParent=1;resizeParentMax=0;resizeLast=0;collapsible=1;marginBottom=0;whiteSpace=wrap;html=1;fillColor=#d5e8d4;strokeColor=#82b366;" parent="1" vertex="1">
          <mxGeometry x="540" y="450" width="230" height="270" as="geometry" />
        </mxCell>
        <mxCell id="6oKM-fmaNjVpeEvg0Xlq-45" value="+ view_customer_info(customer)" style="text;strokeColor=none;fillColor=none;align=left;verticalAlign=middle;spacingLeft=4;spacingRight=4;overflow=hidden;points=[[0,0.5],[1,0.5]];portConstraint=eastwest;rotatable=0;whiteSpace=wrap;html=1;" parent="6oKM-fmaNjVpeEvg0Xlq-44" vertex="1">
          <mxGeometry y="30" width="230" height="30" as="geometry" />
        </mxCell>
        <mxCell id="6oKM-fmaNjVpeEvg0Xlq-46" value="" style="endArrow=none;html=1;rounded=0;exitX=-0.008;exitY=-0.009;exitDx=0;exitDy=0;exitPerimeter=0;entryX=1.008;entryY=-0.009;entryDx=0;entryDy=0;entryPerimeter=0;" parent="6oKM-fmaNjVpeEvg0Xlq-44" source="6oKM-fmaNjVpeEvg0Xlq-45" target="6oKM-fmaNjVpeEvg0Xlq-45" edge="1">
          <mxGeometry width="50" height="50" relative="1" as="geometry">
            <mxPoint x="70" y="90" as="sourcePoint" />
            <mxPoint x="120" y="40" as="targetPoint" />
          </mxGeometry>
        </mxCell>
        <mxCell id="6oKM-fmaNjVpeEvg0Xlq-47" value="+ view_room_info(room)" style="text;strokeColor=none;fillColor=none;align=left;verticalAlign=middle;spacingLeft=4;spacingRight=4;overflow=hidden;points=[[0,0.5],[1,0.5]];portConstraint=eastwest;rotatable=0;whiteSpace=wrap;html=1;" parent="6oKM-fmaNjVpeEvg0Xlq-44" vertex="1">
          <mxGeometry y="60" width="230" height="30" as="geometry" />
        </mxCell>
        <mxCell id="6oKM-fmaNjVpeEvg0Xlq-48" value="+ view_event_info(event)" style="text;strokeColor=none;fillColor=none;align=left;verticalAlign=middle;spacingLeft=4;spacingRight=4;overflow=hidden;points=[[0,0.5],[1,0.5]];portConstraint=eastwest;rotatable=0;whiteSpace=wrap;html=1;" parent="6oKM-fmaNjVpeEvg0Xlq-44" vertex="1">
          <mxGeometry y="90" width="230" height="30" as="geometry" />
        </mxCell>
        <mxCell id="6oKM-fmaNjVpeEvg0Xlq-50" value="+ edit_room_service_info(room)" style="text;strokeColor=none;fillColor=none;align=left;verticalAlign=middle;spacingLeft=4;spacingRight=4;overflow=hidden;points=[[0,0.5],[1,0.5]];portConstraint=eastwest;rotatable=0;whiteSpace=wrap;html=1;" parent="6oKM-fmaNjVpeEvg0Xlq-44" vertex="1">
          <mxGeometry y="120" width="230" height="30" as="geometry" />
        </mxCell>
        <mxCell id="6oKM-fmaNjVpeEvg0Xlq-51" value="+ request_room_service(room)" style="text;strokeColor=none;fillColor=none;align=left;verticalAlign=middle;spacingLeft=4;spacingRight=4;overflow=hidden;points=[[0,0.5],[1,0.5]];portConstraint=eastwest;rotatable=0;whiteSpace=wrap;html=1;" parent="6oKM-fmaNjVpeEvg0Xlq-44" vertex="1">
          <mxGeometry y="150" width="230" height="30" as="geometry" />
        </mxCell>
        <mxCell id="6oKM-fmaNjVpeEvg0Xlq-53" value="+ redund_paymaent()" style="text;strokeColor=none;fillColor=none;align=left;verticalAlign=middle;spacingLeft=4;spacingRight=4;overflow=hidden;points=[[0,0.5],[1,0.5]];portConstraint=eastwest;rotatable=0;whiteSpace=wrap;html=1;" parent="6oKM-fmaNjVpeEvg0Xlq-44" vertex="1">
          <mxGeometry y="180" width="230" height="30" as="geometry" />
        </mxCell>
        <mxCell id="6oKM-fmaNjVpeEvg0Xlq-52" value="+ request_bill()" style="text;strokeColor=none;fillColor=none;align=left;verticalAlign=middle;spacingLeft=4;spacingRight=4;overflow=hidden;points=[[0,0.5],[1,0.5]];portConstraint=eastwest;rotatable=0;whiteSpace=wrap;html=1;" parent="6oKM-fmaNjVpeEvg0Xlq-44" vertex="1">
          <mxGeometry y="210" width="230" height="30" as="geometry" />
        </mxCell>
        <mxCell id="6oKM-fmaNjVpeEvg0Xlq-49" value="+ book(room)" style="text;strokeColor=none;fillColor=none;align=left;verticalAlign=middle;spacingLeft=4;spacingRight=4;overflow=hidden;points=[[0,0.5],[1,0.5]];portConstraint=eastwest;rotatable=0;whiteSpace=wrap;html=1;" parent="6oKM-fmaNjVpeEvg0Xlq-44" vertex="1">
          <mxGeometry y="240" width="230" height="30" as="geometry" />
        </mxCell>
        <mxCell id="6oKM-fmaNjVpeEvg0Xlq-54" value="" style="endArrow=none;html=1;rounded=0;entryX=0;entryY=0.5;entryDx=0;entryDy=0;exitX=0.998;exitY=0.171;exitDx=0;exitDy=0;exitPerimeter=0;" parent="1" source="6oKM-fmaNjVpeEvg0Xlq-50" target="6oKM-fmaNjVpeEvg0Xlq-35" edge="1">
          <mxGeometry width="50" height="50" relative="1" as="geometry">
            <mxPoint x="730" y="550" as="sourcePoint" />
            <mxPoint x="780" y="500" as="targetPoint" />
          </mxGeometry>
        </mxCell>
        <mxCell id="6oKM-fmaNjVpeEvg0Xlq-55" value="" style="endArrow=none;html=1;rounded=0;entryX=0;entryY=0.354;entryDx=0;entryDy=0;entryPerimeter=0;exitX=0.996;exitY=0.674;exitDx=0;exitDy=0;exitPerimeter=0;" parent="1" source="6oKM-fmaNjVpeEvg0Xlq-53" target="6oKM-fmaNjVpeEvg0Xlq-39" edge="1">
          <mxGeometry width="50" height="50" relative="1" as="geometry">
            <mxPoint x="770" y="610" as="sourcePoint" />
            <mxPoint x="820" y="560" as="targetPoint" />
          </mxGeometry>
        </mxCell>
        <mxCell id="6oKM-fmaNjVpeEvg0Xlq-66" value="EMPLOYEE" style="swimlane;fontStyle=0;childLayout=stackLayout;horizontal=1;startSize=30;horizontalStack=0;resizeParent=1;resizeParentMax=0;resizeLast=0;collapsible=1;marginBottom=0;whiteSpace=wrap;html=1;fillColor=#d5e8d4;strokeColor=#82b366;" parent="1" vertex="1">
          <mxGeometry x="150" y="450" width="210" height="240" as="geometry" />
        </mxCell>
        <mxCell id="6oKM-fmaNjVpeEvg0Xlq-67" value="salary: float" style="text;strokeColor=none;fillColor=none;align=left;verticalAlign=middle;spacingLeft=4;spacingRight=4;overflow=hidden;points=[[0,0.5],[1,0.5]];portConstraint=eastwest;rotatable=0;whiteSpace=wrap;html=1;" parent="6oKM-fmaNjVpeEvg0Xlq-66" vertex="1">
          <mxGeometry y="30" width="210" height="30" as="geometry" />
        </mxCell>
        <mxCell id="6oKM-fmaNjVpeEvg0Xlq-69" value="" style="endArrow=none;html=1;rounded=0;exitX=1;exitY=0.046;exitDx=0;exitDy=0;exitPerimeter=0;entryX=0.017;entryY=0.046;entryDx=0;entryDy=0;entryPerimeter=0;" parent="6oKM-fmaNjVpeEvg0Xlq-66" source="6oKM-fmaNjVpeEvg0Xlq-76" target="6oKM-fmaNjVpeEvg0Xlq-76" edge="1">
          <mxGeometry width="50" height="50" relative="1" as="geometry">
            <mxPoint x="70" y="90" as="sourcePoint" />
            <mxPoint x="-40" y="160" as="targetPoint" />
          </mxGeometry>
        </mxCell>
        <mxCell id="6oKM-fmaNjVpeEvg0Xlq-70" value="employee_role: string" style="text;strokeColor=none;fillColor=none;align=left;verticalAlign=middle;spacingLeft=4;spacingRight=4;overflow=hidden;points=[[0,0.5],[1,0.5]];portConstraint=eastwest;rotatable=0;whiteSpace=wrap;html=1;" parent="6oKM-fmaNjVpeEvg0Xlq-66" vertex="1">
          <mxGeometry y="60" width="210" height="30" as="geometry" />
        </mxCell>
        <mxCell id="6oKM-fmaNjVpeEvg0Xlq-76" value="+ view_employee_info()" style="text;strokeColor=none;fillColor=none;align=left;verticalAlign=middle;spacingLeft=4;spacingRight=4;overflow=hidden;points=[[0,0.5],[1,0.5]];portConstraint=eastwest;rotatable=0;whiteSpace=wrap;html=1;" parent="6oKM-fmaNjVpeEvg0Xlq-66" vertex="1">
          <mxGeometry y="90" width="210" height="30" as="geometry" />
        </mxCell>
        <mxCell id="6oKM-fmaNjVpeEvg0Xlq-77" value="+ view_employee_finance()" style="text;strokeColor=none;fillColor=none;align=left;verticalAlign=middle;spacingLeft=4;spacingRight=4;overflow=hidden;points=[[0,0.5],[1,0.5]];portConstraint=eastwest;rotatable=0;whiteSpace=wrap;html=1;" parent="6oKM-fmaNjVpeEvg0Xlq-66" vertex="1">
          <mxGeometry y="120" width="210" height="30" as="geometry" />
        </mxCell>
        <mxCell id="6oKM-fmaNjVpeEvg0Xlq-78" value="+ check_daily_task()" style="text;strokeColor=none;fillColor=none;align=left;verticalAlign=middle;spacingLeft=4;spacingRight=4;overflow=hidden;points=[[0,0.5],[1,0.5]];portConstraint=eastwest;rotatable=0;whiteSpace=wrap;html=1;" parent="6oKM-fmaNjVpeEvg0Xlq-66" vertex="1">
          <mxGeometry y="150" width="210" height="30" as="geometry" />
        </mxCell>
        <mxCell id="6oKM-fmaNjVpeEvg0Xlq-79" value="+ check_weekly_schedule()" style="text;strokeColor=none;fillColor=none;align=left;verticalAlign=middle;spacingLeft=4;spacingRight=4;overflow=hidden;points=[[0,0.5],[1,0.5]];portConstraint=eastwest;rotatable=0;whiteSpace=wrap;html=1;" parent="6oKM-fmaNjVpeEvg0Xlq-66" vertex="1">
          <mxGeometry y="180" width="210" height="30" as="geometry" />
        </mxCell>
        <mxCell id="6oKM-fmaNjVpeEvg0Xlq-80" value="+ request_off_day(start, end)" style="text;strokeColor=none;fillColor=none;align=left;verticalAlign=middle;spacingLeft=4;spacingRight=4;overflow=hidden;points=[[0,0.5],[1,0.5]];portConstraint=eastwest;rotatable=0;whiteSpace=wrap;html=1;" parent="6oKM-fmaNjVpeEvg0Xlq-66" vertex="1">
          <mxGeometry y="210" width="210" height="30" as="geometry" />
        </mxCell>
        <mxCell id="6oKM-fmaNjVpeEvg0Xlq-82" value="" style="endArrow=none;html=1;rounded=0;entryX=0;entryY=0.321;entryDx=0;entryDy=0;entryPerimeter=0;" parent="1" target="6oKM-fmaNjVpeEvg0Xlq-50" edge="1">
          <mxGeometry width="50" height="50" relative="1" as="geometry">
            <mxPoint x="360" y="580" as="sourcePoint" />
            <mxPoint x="410" y="530" as="targetPoint" />
          </mxGeometry>
        </mxCell>
        <mxCell id="6oKM-fmaNjVpeEvg0Xlq-86" value="" style="triangle;whiteSpace=wrap;html=1;rotation=-90;" parent="1" vertex="1">
          <mxGeometry x="430" y="370" width="30" height="30" as="geometry" />
        </mxCell>
        <mxCell id="6oKM-fmaNjVpeEvg0Xlq-87" value="" style="endArrow=none;html=1;rounded=0;entryX=0;entryY=0.5;entryDx=0;entryDy=0;" parent="1" target="6oKM-fmaNjVpeEvg0Xlq-86" edge="1">
          <mxGeometry width="50" height="50" relative="1" as="geometry">
            <mxPoint x="445" y="580" as="sourcePoint" />
            <mxPoint x="570" y="470" as="targetPoint" />
          </mxGeometry>
        </mxCell>
        <mxCell id="6oKM-fmaNjVpeEvg0Xlq-88" value="TASK" style="swimlane;fontStyle=0;childLayout=stackLayout;horizontal=1;startSize=30;horizontalStack=0;resizeParent=1;resizeParentMax=0;resizeLast=0;collapsible=1;marginBottom=0;whiteSpace=wrap;html=1;fillColor=#d5e8d4;strokeColor=#82b366;" parent="1" vertex="1">
          <mxGeometry x="-50" y="420" width="140" height="180" as="geometry" />
        </mxCell>
        <mxCell id="6oKM-fmaNjVpeEvg0Xlq-89" value="employee_id: int" style="text;strokeColor=none;fillColor=none;align=left;verticalAlign=middle;spacingLeft=4;spacingRight=4;overflow=hidden;points=[[0,0.5],[1,0.5]];portConstraint=eastwest;rotatable=0;whiteSpace=wrap;html=1;" parent="6oKM-fmaNjVpeEvg0Xlq-88" vertex="1">
          <mxGeometry y="30" width="140" height="30" as="geometry" />
        </mxCell>
        <mxCell id="6oKM-fmaNjVpeEvg0Xlq-90" value="" style="endArrow=none;html=1;rounded=0;exitX=-0.008;exitY=-0.009;exitDx=0;exitDy=0;exitPerimeter=0;entryX=1.008;entryY=-0.009;entryDx=0;entryDy=0;entryPerimeter=0;" parent="6oKM-fmaNjVpeEvg0Xlq-88" source="6oKM-fmaNjVpeEvg0Xlq-89" target="6oKM-fmaNjVpeEvg0Xlq-89" edge="1">
          <mxGeometry width="50" height="50" relative="1" as="geometry">
            <mxPoint x="70" y="90" as="sourcePoint" />
            <mxPoint x="120" y="40" as="targetPoint" />
          </mxGeometry>
        </mxCell>
        <mxCell id="6oKM-fmaNjVpeEvg0Xlq-91" value="task_id: int" style="text;strokeColor=none;fillColor=none;align=left;verticalAlign=middle;spacingLeft=4;spacingRight=4;overflow=hidden;points=[[0,0.5],[1,0.5]];portConstraint=eastwest;rotatable=0;whiteSpace=wrap;html=1;" parent="6oKM-fmaNjVpeEvg0Xlq-88" vertex="1">
          <mxGeometry y="60" width="140" height="30" as="geometry" />
        </mxCell>
        <mxCell id="6oKM-fmaNjVpeEvg0Xlq-93" value="start_date: Dtae" style="text;strokeColor=none;fillColor=none;align=left;verticalAlign=middle;spacingLeft=4;spacingRight=4;overflow=hidden;points=[[0,0.5],[1,0.5]];portConstraint=eastwest;rotatable=0;whiteSpace=wrap;html=1;" parent="6oKM-fmaNjVpeEvg0Xlq-88" vertex="1">
          <mxGeometry y="90" width="140" height="30" as="geometry" />
        </mxCell>
        <mxCell id="6oKM-fmaNjVpeEvg0Xlq-94" value="end_date: Date" style="text;strokeColor=none;fillColor=none;align=left;verticalAlign=middle;spacingLeft=4;spacingRight=4;overflow=hidden;points=[[0,0.5],[1,0.5]];portConstraint=eastwest;rotatable=0;whiteSpace=wrap;html=1;" parent="6oKM-fmaNjVpeEvg0Xlq-88" vertex="1">
          <mxGeometry y="120" width="140" height="30" as="geometry" />
        </mxCell>
        <mxCell id="6oKM-fmaNjVpeEvg0Xlq-95" value="explaination: string" style="text;strokeColor=none;fillColor=none;align=left;verticalAlign=middle;spacingLeft=4;spacingRight=4;overflow=hidden;points=[[0,0.5],[1,0.5]];portConstraint=eastwest;rotatable=0;whiteSpace=wrap;html=1;" parent="6oKM-fmaNjVpeEvg0Xlq-88" vertex="1">
          <mxGeometry y="150" width="140" height="30" as="geometry" />
        </mxCell>
        <mxCell id="6oKM-fmaNjVpeEvg0Xlq-96" value="" style="endArrow=none;html=1;rounded=0;entryX=-0.001;entryY=-0.006;entryDx=0;entryDy=0;entryPerimeter=0;" parent="1" target="6oKM-fmaNjVpeEvg0Xlq-70" edge="1">
          <mxGeometry width="50" height="50" relative="1" as="geometry">
            <mxPoint x="90" y="510" as="sourcePoint" />
            <mxPoint x="140" y="460" as="targetPoint" />
          </mxGeometry>
        </mxCell>
        <mxCell id="6oKM-fmaNjVpeEvg0Xlq-107" value="" style="endArrow=none;html=1;rounded=0;exitX=0.656;exitY=0;exitDx=0;exitDy=0;exitPerimeter=0;" parent="1" source="6oKM-fmaNjVpeEvg0Xlq-97" edge="1">
          <mxGeometry width="50" height="50" relative="1" as="geometry">
            <mxPoint x="1080" y="830" as="sourcePoint" />
            <mxPoint x="1080" y="650" as="targetPoint" />
          </mxGeometry>
        </mxCell>
        <mxCell id="6oKM-fmaNjVpeEvg0Xlq-97" value="STAFF" style="swimlane;fontStyle=0;childLayout=stackLayout;horizontal=1;startSize=30;horizontalStack=0;resizeParent=1;resizeParentMax=0;resizeLast=0;collapsible=1;marginBottom=0;whiteSpace=wrap;html=1;fillColor=#d5e8d4;strokeColor=#82b366;" parent="1" vertex="1">
          <mxGeometry x="930" y="840" width="230" height="150" as="geometry" />
        </mxCell>
        <mxCell id="6oKM-fmaNjVpeEvg0Xlq-98" value="+ view_employee_task(employee)" style="text;strokeColor=none;fillColor=none;align=left;verticalAlign=middle;spacingLeft=4;spacingRight=4;overflow=hidden;points=[[0,0.5],[1,0.5]];portConstraint=eastwest;rotatable=0;whiteSpace=wrap;html=1;" parent="6oKM-fmaNjVpeEvg0Xlq-97" vertex="1">
          <mxGeometry y="30" width="230" height="30" as="geometry" />
        </mxCell>
        <mxCell id="6oKM-fmaNjVpeEvg0Xlq-99" value="" style="endArrow=none;html=1;rounded=0;exitX=-0.008;exitY=-0.009;exitDx=0;exitDy=0;exitPerimeter=0;entryX=1.008;entryY=-0.009;entryDx=0;entryDy=0;entryPerimeter=0;" parent="6oKM-fmaNjVpeEvg0Xlq-97" source="6oKM-fmaNjVpeEvg0Xlq-98" target="6oKM-fmaNjVpeEvg0Xlq-98" edge="1">
          <mxGeometry width="50" height="50" relative="1" as="geometry">
            <mxPoint x="70" y="90" as="sourcePoint" />
            <mxPoint x="120" y="40" as="targetPoint" />
          </mxGeometry>
        </mxCell>
        <mxCell id="6oKM-fmaNjVpeEvg0Xlq-100" value="+ update_employee_task(employee)" style="text;strokeColor=none;fillColor=none;align=left;verticalAlign=middle;spacingLeft=4;spacingRight=4;overflow=hidden;points=[[0,0.5],[1,0.5]];portConstraint=eastwest;rotatable=0;whiteSpace=wrap;html=1;" parent="6oKM-fmaNjVpeEvg0Xlq-97" vertex="1">
          <mxGeometry y="60" width="230" height="30" as="geometry" />
        </mxCell>
        <mxCell id="6oKM-fmaNjVpeEvg0Xlq-101" value="+ view_storage()" style="text;strokeColor=none;fillColor=none;align=left;verticalAlign=middle;spacingLeft=4;spacingRight=4;overflow=hidden;points=[[0,0.5],[1,0.5]];portConstraint=eastwest;rotatable=0;whiteSpace=wrap;html=1;" parent="6oKM-fmaNjVpeEvg0Xlq-97" vertex="1">
          <mxGeometry y="90" width="230" height="30" as="geometry" />
        </mxCell>
        <mxCell id="6oKM-fmaNjVpeEvg0Xlq-102" value="+ update_storage(item)" style="text;strokeColor=none;fillColor=none;align=left;verticalAlign=middle;spacingLeft=4;spacingRight=4;overflow=hidden;points=[[0,0.5],[1,0.5]];portConstraint=eastwest;rotatable=0;whiteSpace=wrap;html=1;" parent="6oKM-fmaNjVpeEvg0Xlq-97" vertex="1">
          <mxGeometry y="120" width="230" height="30" as="geometry" />
        </mxCell>
        <mxCell id="6oKM-fmaNjVpeEvg0Xlq-108" value="RECEPTIONIST" style="swimlane;fontStyle=0;childLayout=stackLayout;horizontal=1;startSize=30;horizontalStack=0;resizeParent=1;resizeParentMax=0;resizeLast=0;collapsible=1;marginBottom=0;whiteSpace=wrap;html=1;fillColor=#d5e8d4;strokeColor=#82b366;" parent="1" vertex="1">
          <mxGeometry x="600" y="840" width="230" height="180" as="geometry" />
        </mxCell>
        <mxCell id="6oKM-fmaNjVpeEvg0Xlq-109" value="+ view_customer_info(customer)" style="text;strokeColor=none;fillColor=none;align=left;verticalAlign=middle;spacingLeft=4;spacingRight=4;overflow=hidden;points=[[0,0.5],[1,0.5]];portConstraint=eastwest;rotatable=0;whiteSpace=wrap;html=1;" parent="6oKM-fmaNjVpeEvg0Xlq-108" vertex="1">
          <mxGeometry y="30" width="230" height="30" as="geometry" />
        </mxCell>
        <mxCell id="6oKM-fmaNjVpeEvg0Xlq-110" value="" style="endArrow=none;html=1;rounded=0;exitX=-0.008;exitY=-0.009;exitDx=0;exitDy=0;exitPerimeter=0;entryX=1.008;entryY=-0.009;entryDx=0;entryDy=0;entryPerimeter=0;" parent="6oKM-fmaNjVpeEvg0Xlq-108" source="6oKM-fmaNjVpeEvg0Xlq-109" target="6oKM-fmaNjVpeEvg0Xlq-109" edge="1">
          <mxGeometry width="50" height="50" relative="1" as="geometry">
            <mxPoint x="70" y="90" as="sourcePoint" />
            <mxPoint x="120" y="40" as="targetPoint" />
          </mxGeometry>
        </mxCell>
        <mxCell id="6oKM-fmaNjVpeEvg0Xlq-111" value="+ view_room_info(room)" style="text;strokeColor=none;fillColor=none;align=left;verticalAlign=middle;spacingLeft=4;spacingRight=4;overflow=hidden;points=[[0,0.5],[1,0.5]];portConstraint=eastwest;rotatable=0;whiteSpace=wrap;html=1;" parent="6oKM-fmaNjVpeEvg0Xlq-108" vertex="1">
          <mxGeometry y="60" width="230" height="30" as="geometry" />
        </mxCell>
        <mxCell id="6oKM-fmaNjVpeEvg0Xlq-114" value="+ view_event_info(event)" style="text;strokeColor=none;fillColor=none;align=left;verticalAlign=middle;spacingLeft=4;spacingRight=4;overflow=hidden;points=[[0,0.5],[1,0.5]];portConstraint=eastwest;rotatable=0;whiteSpace=wrap;html=1;" parent="6oKM-fmaNjVpeEvg0Xlq-108" vertex="1">
          <mxGeometry y="90" width="230" height="30" as="geometry" />
        </mxCell>
        <mxCell id="6oKM-fmaNjVpeEvg0Xlq-112" value="+ view_booking_info()" style="text;strokeColor=none;fillColor=none;align=left;verticalAlign=middle;spacingLeft=4;spacingRight=4;overflow=hidden;points=[[0,0.5],[1,0.5]];portConstraint=eastwest;rotatable=0;whiteSpace=wrap;html=1;" parent="6oKM-fmaNjVpeEvg0Xlq-108" vertex="1">
          <mxGeometry y="120" width="230" height="30" as="geometry" />
        </mxCell>
        <mxCell id="6oKM-fmaNjVpeEvg0Xlq-115" value="+ edit_booking_info()" style="text;strokeColor=none;fillColor=none;align=left;verticalAlign=middle;spacingLeft=4;spacingRight=4;overflow=hidden;points=[[0,0.5],[1,0.5]];portConstraint=eastwest;rotatable=0;whiteSpace=wrap;html=1;" parent="6oKM-fmaNjVpeEvg0Xlq-108" vertex="1">
          <mxGeometry y="150" width="230" height="30" as="geometry" />
        </mxCell>
        <mxCell id="6oKM-fmaNjVpeEvg0Xlq-117" value="" style="endArrow=none;html=1;rounded=0;entryX=0;entryY=0.5;entryDx=0;entryDy=0;exitX=0.75;exitY=0;exitDx=0;exitDy=0;" parent="1" source="6oKM-fmaNjVpeEvg0Xlq-108" target="6oKM-fmaNjVpeEvg0Xlq-41" edge="1">
          <mxGeometry width="50" height="50" relative="1" as="geometry">
            <mxPoint x="740" y="820" as="sourcePoint" />
            <mxPoint x="790" y="770" as="targetPoint" />
          </mxGeometry>
        </mxCell>
        <mxCell id="6oKM-fmaNjVpeEvg0Xlq-124" value="STORAGE" style="swimlane;fontStyle=0;childLayout=stackLayout;horizontal=1;startSize=30;horizontalStack=0;resizeParent=1;resizeParentMax=0;resizeLast=0;collapsible=1;marginBottom=0;whiteSpace=wrap;html=1;fillColor=#d5e8d4;strokeColor=#82b366;" parent="1" vertex="1">
          <mxGeometry x="790" y="1100" width="140" height="120" as="geometry" />
        </mxCell>
        <mxCell id="6oKM-fmaNjVpeEvg0Xlq-125" value="item_id: int" style="text;strokeColor=none;fillColor=none;align=left;verticalAlign=middle;spacingLeft=4;spacingRight=4;overflow=hidden;points=[[0,0.5],[1,0.5]];portConstraint=eastwest;rotatable=0;whiteSpace=wrap;html=1;" parent="6oKM-fmaNjVpeEvg0Xlq-124" vertex="1">
          <mxGeometry y="30" width="140" height="30" as="geometry" />
        </mxCell>
        <mxCell id="6oKM-fmaNjVpeEvg0Xlq-126" value="" style="endArrow=none;html=1;rounded=0;exitX=-0.008;exitY=-0.009;exitDx=0;exitDy=0;exitPerimeter=0;entryX=1.008;entryY=-0.009;entryDx=0;entryDy=0;entryPerimeter=0;" parent="6oKM-fmaNjVpeEvg0Xlq-124" source="6oKM-fmaNjVpeEvg0Xlq-125" target="6oKM-fmaNjVpeEvg0Xlq-125" edge="1">
          <mxGeometry width="50" height="50" relative="1" as="geometry">
            <mxPoint x="70" y="90" as="sourcePoint" />
            <mxPoint x="120" y="40" as="targetPoint" />
          </mxGeometry>
        </mxCell>
        <mxCell id="6oKM-fmaNjVpeEvg0Xlq-127" value="type: string" style="text;strokeColor=none;fillColor=none;align=left;verticalAlign=middle;spacingLeft=4;spacingRight=4;overflow=hidden;points=[[0,0.5],[1,0.5]];portConstraint=eastwest;rotatable=0;whiteSpace=wrap;html=1;" parent="6oKM-fmaNjVpeEvg0Xlq-124" vertex="1">
          <mxGeometry y="60" width="140" height="30" as="geometry" />
        </mxCell>
        <mxCell id="6oKM-fmaNjVpeEvg0Xlq-128" value="quanlity: int" style="text;strokeColor=none;fillColor=none;align=left;verticalAlign=middle;spacingLeft=4;spacingRight=4;overflow=hidden;points=[[0,0.5],[1,0.5]];portConstraint=eastwest;rotatable=0;whiteSpace=wrap;html=1;" parent="6oKM-fmaNjVpeEvg0Xlq-124" vertex="1">
          <mxGeometry y="90" width="140" height="30" as="geometry" />
        </mxCell>
        <mxCell id="6oKM-fmaNjVpeEvg0Xlq-131" value="" style="endArrow=none;html=1;rounded=0;exitX=1;exitY=0.5;exitDx=0;exitDy=0;" parent="1" source="6oKM-fmaNjVpeEvg0Xlq-127" edge="1">
          <mxGeometry width="50" height="50" relative="1" as="geometry">
            <mxPoint x="990" y="1040" as="sourcePoint" />
            <mxPoint x="1040" y="990" as="targetPoint" />
            <Array as="points">
              <mxPoint x="1040" y="1175" />
            </Array>
          </mxGeometry>
        </mxCell>
        <mxCell id="6oKM-fmaNjVpeEvg0Xlq-132" value="MANAGER" style="swimlane;fontStyle=0;childLayout=stackLayout;horizontal=1;startSize=30;horizontalStack=0;resizeParent=1;resizeParentMax=0;resizeLast=0;collapsible=1;marginBottom=0;whiteSpace=wrap;html=1;fillColor=#d5e8d4;strokeColor=#82b366;" parent="1" vertex="1">
          <mxGeometry x="250" y="840" width="260" height="690" as="geometry" />
        </mxCell>
        <mxCell id="6oKM-fmaNjVpeEvg0Xlq-133" value="+ view_customer_info(customer)" style="text;strokeColor=none;fillColor=none;align=left;verticalAlign=middle;spacingLeft=4;spacingRight=4;overflow=hidden;points=[[0,0.5],[1,0.5]];portConstraint=eastwest;rotatable=0;whiteSpace=wrap;html=1;" parent="6oKM-fmaNjVpeEvg0Xlq-132" vertex="1">
          <mxGeometry y="30" width="260" height="30" as="geometry" />
        </mxCell>
        <mxCell id="6oKM-fmaNjVpeEvg0Xlq-134" value="" style="endArrow=none;html=1;rounded=0;exitX=-0.008;exitY=-0.009;exitDx=0;exitDy=0;exitPerimeter=0;entryX=1.008;entryY=-0.009;entryDx=0;entryDy=0;entryPerimeter=0;" parent="6oKM-fmaNjVpeEvg0Xlq-132" source="6oKM-fmaNjVpeEvg0Xlq-133" target="6oKM-fmaNjVpeEvg0Xlq-133" edge="1">
          <mxGeometry width="50" height="50" relative="1" as="geometry">
            <mxPoint x="70" y="90" as="sourcePoint" />
            <mxPoint x="120" y="40" as="targetPoint" />
          </mxGeometry>
        </mxCell>
        <mxCell id="6oKM-fmaNjVpeEvg0Xlq-140" value="+ edit_customer_info(customer)" style="text;strokeColor=none;fillColor=none;align=left;verticalAlign=middle;spacingLeft=4;spacingRight=4;overflow=hidden;points=[[0,0.5],[1,0.5]];portConstraint=eastwest;rotatable=0;whiteSpace=wrap;html=1;" parent="6oKM-fmaNjVpeEvg0Xlq-132" vertex="1">
          <mxGeometry y="60" width="260" height="30" as="geometry" />
        </mxCell>
        <mxCell id="6oKM-fmaNjVpeEvg0Xlq-142" value="+ view_room_info(room)" style="text;strokeColor=none;fillColor=none;align=left;verticalAlign=middle;spacingLeft=4;spacingRight=4;overflow=hidden;points=[[0,0.5],[1,0.5]];portConstraint=eastwest;rotatable=0;whiteSpace=wrap;html=1;" parent="6oKM-fmaNjVpeEvg0Xlq-132" vertex="1">
          <mxGeometry y="90" width="260" height="30" as="geometry" />
        </mxCell>
        <mxCell id="6oKM-fmaNjVpeEvg0Xlq-141" value="+ edit_room_info(room)" style="text;strokeColor=none;fillColor=none;align=left;verticalAlign=middle;spacingLeft=4;spacingRight=4;overflow=hidden;points=[[0,0.5],[1,0.5]];portConstraint=eastwest;rotatable=0;whiteSpace=wrap;html=1;" parent="6oKM-fmaNjVpeEvg0Xlq-132" vertex="1">
          <mxGeometry y="120" width="260" height="30" as="geometry" />
        </mxCell>
        <mxCell id="6oKM-fmaNjVpeEvg0Xlq-143" value="+ view_employee_info(employee)" style="text;strokeColor=none;fillColor=none;align=left;verticalAlign=middle;spacingLeft=4;spacingRight=4;overflow=hidden;points=[[0,0.5],[1,0.5]];portConstraint=eastwest;rotatable=0;whiteSpace=wrap;html=1;" parent="6oKM-fmaNjVpeEvg0Xlq-132" vertex="1">
          <mxGeometry y="150" width="260" height="30" as="geometry" />
        </mxCell>
        <mxCell id="6oKM-fmaNjVpeEvg0Xlq-144" value="+ edit_employee_info(employee)" style="text;strokeColor=none;fillColor=none;align=left;verticalAlign=middle;spacingLeft=4;spacingRight=4;overflow=hidden;points=[[0,0.5],[1,0.5]];portConstraint=eastwest;rotatable=0;whiteSpace=wrap;html=1;" parent="6oKM-fmaNjVpeEvg0Xlq-132" vertex="1">
          <mxGeometry y="180" width="260" height="30" as="geometry" />
        </mxCell>
        <mxCell id="6oKM-fmaNjVpeEvg0Xlq-147" value="+ view_event_info(event)" style="text;strokeColor=none;fillColor=none;align=left;verticalAlign=middle;spacingLeft=4;spacingRight=4;overflow=hidden;points=[[0,0.5],[1,0.5]];portConstraint=eastwest;rotatable=0;whiteSpace=wrap;html=1;" parent="6oKM-fmaNjVpeEvg0Xlq-132" vertex="1">
          <mxGeometry y="210" width="260" height="30" as="geometry" />
        </mxCell>
        <mxCell id="6oKM-fmaNjVpeEvg0Xlq-146" value="+ edit_event_info(event)" style="text;strokeColor=none;fillColor=none;align=left;verticalAlign=middle;spacingLeft=4;spacingRight=4;overflow=hidden;points=[[0,0.5],[1,0.5]];portConstraint=eastwest;rotatable=0;whiteSpace=wrap;html=1;" parent="6oKM-fmaNjVpeEvg0Xlq-132" vertex="1">
          <mxGeometry y="240" width="260" height="30" as="geometry" />
        </mxCell>
        <mxCell id="6oKM-fmaNjVpeEvg0Xlq-149" value="+ view_booking_info()" style="text;strokeColor=none;fillColor=none;align=left;verticalAlign=middle;spacingLeft=4;spacingRight=4;overflow=hidden;points=[[0,0.5],[1,0.5]];portConstraint=eastwest;rotatable=0;whiteSpace=wrap;html=1;" parent="6oKM-fmaNjVpeEvg0Xlq-132" vertex="1">
          <mxGeometry y="270" width="260" height="30" as="geometry" />
        </mxCell>
        <mxCell id="6oKM-fmaNjVpeEvg0Xlq-150" value="+ edit_booking_info()" style="text;strokeColor=none;fillColor=none;align=left;verticalAlign=middle;spacingLeft=4;spacingRight=4;overflow=hidden;points=[[0,0.5],[1,0.5]];portConstraint=eastwest;rotatable=0;whiteSpace=wrap;html=1;" parent="6oKM-fmaNjVpeEvg0Xlq-132" vertex="1">
          <mxGeometry y="300" width="260" height="30" as="geometry" />
        </mxCell>
        <mxCell id="6oKM-fmaNjVpeEvg0Xlq-151" value="+ book(room, customer)" style="text;strokeColor=none;fillColor=none;align=left;verticalAlign=middle;spacingLeft=4;spacingRight=4;overflow=hidden;points=[[0,0.5],[1,0.5]];portConstraint=eastwest;rotatable=0;whiteSpace=wrap;html=1;" parent="6oKM-fmaNjVpeEvg0Xlq-132" vertex="1">
          <mxGeometry y="330" width="260" height="30" as="geometry" />
        </mxCell>
        <mxCell id="6oKM-fmaNjVpeEvg0Xlq-152" value="+ view_room_service_info(room)" style="text;strokeColor=none;fillColor=none;align=left;verticalAlign=middle;spacingLeft=4;spacingRight=4;overflow=hidden;points=[[0,0.5],[1,0.5]];portConstraint=eastwest;rotatable=0;whiteSpace=wrap;html=1;" parent="6oKM-fmaNjVpeEvg0Xlq-132" vertex="1">
          <mxGeometry y="360" width="260" height="30" as="geometry" />
        </mxCell>
        <mxCell id="6oKM-fmaNjVpeEvg0Xlq-153" value="+ edit_room_service_info(room)" style="text;strokeColor=none;fillColor=none;align=left;verticalAlign=middle;spacingLeft=4;spacingRight=4;overflow=hidden;points=[[0,0.5],[1,0.5]];portConstraint=eastwest;rotatable=0;whiteSpace=wrap;html=1;" parent="6oKM-fmaNjVpeEvg0Xlq-132" vertex="1">
          <mxGeometry y="390" width="260" height="30" as="geometry" />
        </mxCell>
        <mxCell id="6oKM-fmaNjVpeEvg0Xlq-154" value="+ view_employee_task(employee)" style="text;strokeColor=none;fillColor=none;align=left;verticalAlign=middle;spacingLeft=4;spacingRight=4;overflow=hidden;points=[[0,0.5],[1,0.5]];portConstraint=eastwest;rotatable=0;whiteSpace=wrap;html=1;" parent="6oKM-fmaNjVpeEvg0Xlq-132" vertex="1">
          <mxGeometry y="420" width="260" height="30" as="geometry" />
        </mxCell>
        <mxCell id="6oKM-fmaNjVpeEvg0Xlq-155" value="+ update_employee_task(employee)" style="text;strokeColor=none;fillColor=none;align=left;verticalAlign=middle;spacingLeft=4;spacingRight=4;overflow=hidden;points=[[0,0.5],[1,0.5]];portConstraint=eastwest;rotatable=0;whiteSpace=wrap;html=1;" parent="6oKM-fmaNjVpeEvg0Xlq-132" vertex="1">
          <mxGeometry y="450" width="260" height="30" as="geometry" />
        </mxCell>
        <mxCell id="6oKM-fmaNjVpeEvg0Xlq-156" value="+ edit_announcement(item)" style="text;strokeColor=none;fillColor=none;align=left;verticalAlign=middle;spacingLeft=4;spacingRight=4;overflow=hidden;points=[[0,0.5],[1,0.5]];portConstraint=eastwest;rotatable=0;whiteSpace=wrap;html=1;" parent="6oKM-fmaNjVpeEvg0Xlq-132" vertex="1">
          <mxGeometry y="480" width="260" height="30" as="geometry" />
        </mxCell>
        <mxCell id="6oKM-fmaNjVpeEvg0Xlq-157" value="+ create_announcement()" style="text;strokeColor=none;fillColor=none;align=left;verticalAlign=middle;spacingLeft=4;spacingRight=4;overflow=hidden;points=[[0,0.5],[1,0.5]];portConstraint=eastwest;rotatable=0;whiteSpace=wrap;html=1;" parent="6oKM-fmaNjVpeEvg0Xlq-132" vertex="1">
          <mxGeometry y="510" width="260" height="30" as="geometry" />
        </mxCell>
        <mxCell id="6oKM-fmaNjVpeEvg0Xlq-158" value="+ get_report()" style="text;strokeColor=none;fillColor=none;align=left;verticalAlign=middle;spacingLeft=4;spacingRight=4;overflow=hidden;points=[[0,0.5],[1,0.5]];portConstraint=eastwest;rotatable=0;whiteSpace=wrap;html=1;" parent="6oKM-fmaNjVpeEvg0Xlq-132" vertex="1">
          <mxGeometry y="540" width="260" height="30" as="geometry" />
        </mxCell>
        <mxCell id="6oKM-fmaNjVpeEvg0Xlq-159" value="+ see_guest_in_intervals(start, end)" style="text;strokeColor=none;fillColor=none;align=left;verticalAlign=middle;spacingLeft=4;spacingRight=4;overflow=hidden;points=[[0,0.5],[1,0.5]];portConstraint=eastwest;rotatable=0;whiteSpace=wrap;html=1;" parent="6oKM-fmaNjVpeEvg0Xlq-132" vertex="1">
          <mxGeometry y="570" width="260" height="30" as="geometry" />
        </mxCell>
        <mxCell id="6oKM-fmaNjVpeEvg0Xlq-160" value="+ refund_payment(customer)" style="text;strokeColor=none;fillColor=none;align=left;verticalAlign=middle;spacingLeft=4;spacingRight=4;overflow=hidden;points=[[0,0.5],[1,0.5]];portConstraint=eastwest;rotatable=0;whiteSpace=wrap;html=1;" parent="6oKM-fmaNjVpeEvg0Xlq-132" vertex="1">
          <mxGeometry y="600" width="260" height="30" as="geometry" />
        </mxCell>
        <mxCell id="6oKM-fmaNjVpeEvg0Xlq-162" value="+ view_storage()" style="text;strokeColor=none;fillColor=none;align=left;verticalAlign=middle;spacingLeft=4;spacingRight=4;overflow=hidden;points=[[0,0.5],[1,0.5]];portConstraint=eastwest;rotatable=0;whiteSpace=wrap;html=1;" parent="6oKM-fmaNjVpeEvg0Xlq-132" vertex="1">
          <mxGeometry y="630" width="260" height="30" as="geometry" />
        </mxCell>
        <mxCell id="6oKM-fmaNjVpeEvg0Xlq-163" value="+ update_storage(item)" style="text;strokeColor=none;fillColor=none;align=left;verticalAlign=middle;spacingLeft=4;spacingRight=4;overflow=hidden;points=[[0,0.5],[1,0.5]];portConstraint=eastwest;rotatable=0;whiteSpace=wrap;html=1;" parent="6oKM-fmaNjVpeEvg0Xlq-132" vertex="1">
          <mxGeometry y="660" width="260" height="30" as="geometry" />
        </mxCell>
        <mxCell id="6oKM-fmaNjVpeEvg0Xlq-164" value="ADMIN" style="swimlane;fontStyle=0;childLayout=stackLayout;horizontal=1;startSize=30;horizontalStack=0;resizeParent=1;resizeParentMax=0;resizeLast=0;collapsible=1;marginBottom=0;whiteSpace=wrap;html=1;fillColor=#d5e8d4;strokeColor=#82b366;" parent="1" vertex="1">
          <mxGeometry x="-140" y="840" width="260" height="570" as="geometry" />
        </mxCell>
        <mxCell id="6oKM-fmaNjVpeEvg0Xlq-165" value="+ view_customer_info(customer)" style="text;strokeColor=none;fillColor=none;align=left;verticalAlign=middle;spacingLeft=4;spacingRight=4;overflow=hidden;points=[[0,0.5],[1,0.5]];portConstraint=eastwest;rotatable=0;whiteSpace=wrap;html=1;" parent="6oKM-fmaNjVpeEvg0Xlq-164" vertex="1">
          <mxGeometry y="30" width="260" height="30" as="geometry" />
        </mxCell>
        <mxCell id="6oKM-fmaNjVpeEvg0Xlq-166" value="" style="endArrow=none;html=1;rounded=0;exitX=-0.008;exitY=-0.009;exitDx=0;exitDy=0;exitPerimeter=0;entryX=1.008;entryY=-0.009;entryDx=0;entryDy=0;entryPerimeter=0;" parent="6oKM-fmaNjVpeEvg0Xlq-164" source="6oKM-fmaNjVpeEvg0Xlq-165" target="6oKM-fmaNjVpeEvg0Xlq-165" edge="1">
          <mxGeometry width="50" height="50" relative="1" as="geometry">
            <mxPoint x="70" y="90" as="sourcePoint" />
            <mxPoint x="120" y="40" as="targetPoint" />
          </mxGeometry>
        </mxCell>
        <mxCell id="6oKM-fmaNjVpeEvg0Xlq-167" value="+ edit_customer_info(customer)" style="text;strokeColor=none;fillColor=none;align=left;verticalAlign=middle;spacingLeft=4;spacingRight=4;overflow=hidden;points=[[0,0.5],[1,0.5]];portConstraint=eastwest;rotatable=0;whiteSpace=wrap;html=1;" parent="6oKM-fmaNjVpeEvg0Xlq-164" vertex="1">
          <mxGeometry y="60" width="260" height="30" as="geometry" />
        </mxCell>
        <mxCell id="6oKM-fmaNjVpeEvg0Xlq-168" value="+ view_room_info(room)" style="text;strokeColor=none;fillColor=none;align=left;verticalAlign=middle;spacingLeft=4;spacingRight=4;overflow=hidden;points=[[0,0.5],[1,0.5]];portConstraint=eastwest;rotatable=0;whiteSpace=wrap;html=1;" parent="6oKM-fmaNjVpeEvg0Xlq-164" vertex="1">
          <mxGeometry y="90" width="260" height="30" as="geometry" />
        </mxCell>
        <mxCell id="6oKM-fmaNjVpeEvg0Xlq-169" value="+ edit_room_info(room)" style="text;strokeColor=none;fillColor=none;align=left;verticalAlign=middle;spacingLeft=4;spacingRight=4;overflow=hidden;points=[[0,0.5],[1,0.5]];portConstraint=eastwest;rotatable=0;whiteSpace=wrap;html=1;" parent="6oKM-fmaNjVpeEvg0Xlq-164" vertex="1">
          <mxGeometry y="120" width="260" height="30" as="geometry" />
        </mxCell>
        <mxCell id="6oKM-fmaNjVpeEvg0Xlq-170" value="+ view_employee_info(employee)" style="text;strokeColor=none;fillColor=none;align=left;verticalAlign=middle;spacingLeft=4;spacingRight=4;overflow=hidden;points=[[0,0.5],[1,0.5]];portConstraint=eastwest;rotatable=0;whiteSpace=wrap;html=1;" parent="6oKM-fmaNjVpeEvg0Xlq-164" vertex="1">
          <mxGeometry y="150" width="260" height="30" as="geometry" />
        </mxCell>
        <mxCell id="6oKM-fmaNjVpeEvg0Xlq-171" value="+ edit_employee_info(employee)" style="text;strokeColor=none;fillColor=none;align=left;verticalAlign=middle;spacingLeft=4;spacingRight=4;overflow=hidden;points=[[0,0.5],[1,0.5]];portConstraint=eastwest;rotatable=0;whiteSpace=wrap;html=1;" parent="6oKM-fmaNjVpeEvg0Xlq-164" vertex="1">
          <mxGeometry y="180" width="260" height="30" as="geometry" />
        </mxCell>
        <mxCell id="6oKM-fmaNjVpeEvg0Xlq-172" value="+ view_event_info(event)" style="text;strokeColor=none;fillColor=none;align=left;verticalAlign=middle;spacingLeft=4;spacingRight=4;overflow=hidden;points=[[0,0.5],[1,0.5]];portConstraint=eastwest;rotatable=0;whiteSpace=wrap;html=1;" parent="6oKM-fmaNjVpeEvg0Xlq-164" vertex="1">
          <mxGeometry y="210" width="260" height="30" as="geometry" />
        </mxCell>
        <mxCell id="6oKM-fmaNjVpeEvg0Xlq-173" value="+ edit_event_info(event)" style="text;strokeColor=none;fillColor=none;align=left;verticalAlign=middle;spacingLeft=4;spacingRight=4;overflow=hidden;points=[[0,0.5],[1,0.5]];portConstraint=eastwest;rotatable=0;whiteSpace=wrap;html=1;" parent="6oKM-fmaNjVpeEvg0Xlq-164" vertex="1">
          <mxGeometry y="240" width="260" height="30" as="geometry" />
        </mxCell>
        <mxCell id="6oKM-fmaNjVpeEvg0Xlq-174" value="+ view_booking_info()" style="text;strokeColor=none;fillColor=none;align=left;verticalAlign=middle;spacingLeft=4;spacingRight=4;overflow=hidden;points=[[0,0.5],[1,0.5]];portConstraint=eastwest;rotatable=0;whiteSpace=wrap;html=1;" parent="6oKM-fmaNjVpeEvg0Xlq-164" vertex="1">
          <mxGeometry y="270" width="260" height="30" as="geometry" />
        </mxCell>
        <mxCell id="6oKM-fmaNjVpeEvg0Xlq-175" value="+ edit_booking_info()" style="text;strokeColor=none;fillColor=none;align=left;verticalAlign=middle;spacingLeft=4;spacingRight=4;overflow=hidden;points=[[0,0.5],[1,0.5]];portConstraint=eastwest;rotatable=0;whiteSpace=wrap;html=1;" parent="6oKM-fmaNjVpeEvg0Xlq-164" vertex="1">
          <mxGeometry y="300" width="260" height="30" as="geometry" />
        </mxCell>
        <mxCell id="6oKM-fmaNjVpeEvg0Xlq-176" value="+ book(room, customer)" style="text;strokeColor=none;fillColor=none;align=left;verticalAlign=middle;spacingLeft=4;spacingRight=4;overflow=hidden;points=[[0,0.5],[1,0.5]];portConstraint=eastwest;rotatable=0;whiteSpace=wrap;html=1;" parent="6oKM-fmaNjVpeEvg0Xlq-164" vertex="1">
          <mxGeometry y="330" width="260" height="30" as="geometry" />
        </mxCell>
        <mxCell id="6oKM-fmaNjVpeEvg0Xlq-177" value="+ view_room_service_info(room)" style="text;strokeColor=none;fillColor=none;align=left;verticalAlign=middle;spacingLeft=4;spacingRight=4;overflow=hidden;points=[[0,0.5],[1,0.5]];portConstraint=eastwest;rotatable=0;whiteSpace=wrap;html=1;" parent="6oKM-fmaNjVpeEvg0Xlq-164" vertex="1">
          <mxGeometry y="360" width="260" height="30" as="geometry" />
        </mxCell>
        <mxCell id="6oKM-fmaNjVpeEvg0Xlq-178" value="+ edit_room_service_info(room)" style="text;strokeColor=none;fillColor=none;align=left;verticalAlign=middle;spacingLeft=4;spacingRight=4;overflow=hidden;points=[[0,0.5],[1,0.5]];portConstraint=eastwest;rotatable=0;whiteSpace=wrap;html=1;" parent="6oKM-fmaNjVpeEvg0Xlq-164" vertex="1">
          <mxGeometry y="390" width="260" height="30" as="geometry" />
        </mxCell>
        <mxCell id="6oKM-fmaNjVpeEvg0Xlq-179" value="+ view_employee_task(employee)" style="text;strokeColor=none;fillColor=none;align=left;verticalAlign=middle;spacingLeft=4;spacingRight=4;overflow=hidden;points=[[0,0.5],[1,0.5]];portConstraint=eastwest;rotatable=0;whiteSpace=wrap;html=1;" parent="6oKM-fmaNjVpeEvg0Xlq-164" vertex="1">
          <mxGeometry y="420" width="260" height="30" as="geometry" />
        </mxCell>
        <mxCell id="6oKM-fmaNjVpeEvg0Xlq-180" value="+ update_employee_task(employee)" style="text;strokeColor=none;fillColor=none;align=left;verticalAlign=middle;spacingLeft=4;spacingRight=4;overflow=hidden;points=[[0,0.5],[1,0.5]];portConstraint=eastwest;rotatable=0;whiteSpace=wrap;html=1;" parent="6oKM-fmaNjVpeEvg0Xlq-164" vertex="1">
          <mxGeometry y="450" width="260" height="30" as="geometry" />
        </mxCell>
        <mxCell id="6oKM-fmaNjVpeEvg0Xlq-181" value="+ edit_announcement(item)" style="text;strokeColor=none;fillColor=none;align=left;verticalAlign=middle;spacingLeft=4;spacingRight=4;overflow=hidden;points=[[0,0.5],[1,0.5]];portConstraint=eastwest;rotatable=0;whiteSpace=wrap;html=1;" parent="6oKM-fmaNjVpeEvg0Xlq-164" vertex="1">
          <mxGeometry y="480" width="260" height="30" as="geometry" />
        </mxCell>
        <mxCell id="6oKM-fmaNjVpeEvg0Xlq-182" value="+ create_announcement()" style="text;strokeColor=none;fillColor=none;align=left;verticalAlign=middle;spacingLeft=4;spacingRight=4;overflow=hidden;points=[[0,0.5],[1,0.5]];portConstraint=eastwest;rotatable=0;whiteSpace=wrap;html=1;" parent="6oKM-fmaNjVpeEvg0Xlq-164" vertex="1">
          <mxGeometry y="510" width="260" height="30" as="geometry" />
        </mxCell>
        <mxCell id="6oKM-fmaNjVpeEvg0Xlq-187" value="+ edit_employee_finance(employee)" style="text;strokeColor=none;fillColor=none;align=left;verticalAlign=middle;spacingLeft=4;spacingRight=4;overflow=hidden;points=[[0,0.5],[1,0.5]];portConstraint=eastwest;rotatable=0;whiteSpace=wrap;html=1;" parent="6oKM-fmaNjVpeEvg0Xlq-164" vertex="1">
          <mxGeometry y="540" width="260" height="30" as="geometry" />
        </mxCell>
        <mxCell id="6oKM-fmaNjVpeEvg0Xlq-188" value="" style="endArrow=none;html=1;rounded=0;entryX=0;entryY=0.5;entryDx=0;entryDy=0;exitX=1.005;exitY=0.265;exitDx=0;exitDy=0;exitPerimeter=0;" parent="1" source="6oKM-fmaNjVpeEvg0Xlq-151" target="6oKM-fmaNjVpeEvg0Xlq-127" edge="1">
          <mxGeometry width="50" height="50" relative="1" as="geometry">
            <mxPoint x="570" y="1310" as="sourcePoint" />
            <mxPoint x="620" y="1260" as="targetPoint" />
          </mxGeometry>
        </mxCell>
        <mxCell id="6oKM-fmaNjVpeEvg0Xlq-189" value="" style="endArrow=none;html=1;rounded=0;" parent="1" edge="1">
          <mxGeometry width="50" height="50" relative="1" as="geometry">
            <mxPoint x="10" y="790" as="sourcePoint" />
            <mxPoint x="1000" y="790" as="targetPoint" />
          </mxGeometry>
        </mxCell>
        <mxCell id="6oKM-fmaNjVpeEvg0Xlq-193" value="" style="endArrow=none;html=1;rounded=0;" parent="1" edge="1">
          <mxGeometry width="50" height="50" relative="1" as="geometry">
            <mxPoint x="10" y="840" as="sourcePoint" />
            <mxPoint x="10" y="790" as="targetPoint" />
          </mxGeometry>
        </mxCell>
        <mxCell id="6oKM-fmaNjVpeEvg0Xlq-194" value="" style="endArrow=none;html=1;rounded=0;" parent="1" edge="1">
          <mxGeometry width="50" height="50" relative="1" as="geometry">
            <mxPoint x="384" y="839" as="sourcePoint" />
            <mxPoint x="384" y="789" as="targetPoint" />
          </mxGeometry>
        </mxCell>
        <mxCell id="6oKM-fmaNjVpeEvg0Xlq-195" value="" style="endArrow=none;html=1;rounded=0;" parent="1" edge="1">
          <mxGeometry width="50" height="50" relative="1" as="geometry">
            <mxPoint x="702" y="840" as="sourcePoint" />
            <mxPoint x="702" y="790" as="targetPoint" />
          </mxGeometry>
        </mxCell>
        <mxCell id="6oKM-fmaNjVpeEvg0Xlq-196" value="" style="endArrow=none;html=1;rounded=0;" parent="1" edge="1">
          <mxGeometry width="50" height="50" relative="1" as="geometry">
            <mxPoint x="999" y="840" as="sourcePoint" />
            <mxPoint x="999" y="790" as="targetPoint" />
          </mxGeometry>
        </mxCell>
        <mxCell id="6oKM-fmaNjVpeEvg0Xlq-197" value="" style="triangle;whiteSpace=wrap;html=1;rotation=-90;" parent="1" vertex="1">
          <mxGeometry x="260" y="690" width="30" height="30" as="geometry" />
        </mxCell>
        <mxCell id="6oKM-fmaNjVpeEvg0Xlq-198" value="" style="endArrow=none;html=1;rounded=0;entryX=0;entryY=0.5;entryDx=0;entryDy=0;" parent="1" target="6oKM-fmaNjVpeEvg0Xlq-197" edge="1">
          <mxGeometry width="50" height="50" relative="1" as="geometry">
            <mxPoint x="275" y="840" as="sourcePoint" />
            <mxPoint x="620" y="820" as="targetPoint" />
          </mxGeometry>
        </mxCell>
      </root>
    </mxGraphModel>
  </diagram>
</mxfile>
